<svg xmlns="http://www.w3.org/2000/svg" width="65.141" height="57.681" viewBox="0 0 65.141 57.681"><defs><style>.a{opacity:0.6;}.b{fill:#79cd78;}.c{fill:#0e580d;}</style></defs><g class="a" transform="translate(-0.001 -17.007)"><path class="b" d="M96.33,54.029a2.187,2.187,0,0,0,2.889,0c.523-.461,12.807-11.41,12.807-22.765a14.252,14.252,0,1,0-28.5,0C83.523,42.619,95.807,53.568,96.33,54.029Zm1.445-26.49a3.725,3.725,0,1,1-3.7,3.725A3.71,3.71,0,0,1,97.775,27.539Z" transform="translate(-65.203)"/><path class="c" d="M77.286,159.536l-1.651-5.785a2.186,2.186,0,0,0-2.1-1.586H61.751q-.639.95-1.351,1.908a54.568,54.568,0,0,1-7.032,7.766,5.247,5.247,0,0,1-6.935,0,54.573,54.573,0,0,1-7.032-7.766q-.713-.959-1.351-1.908H26.268a2.186,2.186,0,0,0-2.1,1.586L22.2,160.645,66.181,168.7Z" transform="translate(-17.33 -105.513)"/><path class="b" d="M207.12,214.677,202.9,199.895l-20.927,17.568h23.043a2.186,2.186,0,0,0,2.1-2.786Z" transform="translate(-142.062 -142.775)"/><path class="b" d="M10.7,205.535l-6.676-1.223L.084,218.125a2.186,2.186,0,0,0,2.1,2.786H10.7Z" transform="translate(0 -146.223)"/><path d="M62.746,212.445V227.26H84.137l10.656-8.945Z" transform="translate(-48.983 -152.572)"/></g></svg>